<svg width="53" height="70" viewBox="0 0 53 70" fill="none" xmlns="http://www.w3.org/2000/svg">
<path d="M25.2769 21.9845C26.0923 20.2061 27.7231 15.7603 30.9846 15.7603C33.5938 15.7603 34.2462 18.7242 34.2462 20.2061V24.652C34.2462 25.3634 32.6154 25.5412 31.8 25.5412C31.4499 26.3049 30.8742 27.4867 30.5088 28.0409C31.2803 28.1558 33.1808 29.29 34.2462 29.9871C35.8769 28.2087 47.2923 25.5412 48.1077 24.652C48.9231 23.7629 53 21.0953 53 23.7629C53 25.8969 49.1949 27.0232 47.2923 27.3196C43.3785 30.1649 34.7897 32.6546 30.9846 33.5438C26.4185 40.6572 19.2974 43.0283 16.3077 43.3247C15.0031 58.2629 17.3949 66.1469 18.7538 68.2217C21.3631 68.2217 22.0154 69.4072 22.0154 70H14.6769C14.6769 67.1547 12.5026 61.701 11.4154 59.3299V56.6624C11.4154 52.2165 9.24103 43.0283 9.78462 38.8788C1.95692 28.9201 0 24.0593 0 22.8737C0 17.183 1.63077 16.3531 2.44615 16.6495C6.36 5.97935 8.42564 3.31183 8.96923 3.31184L9.78462 0.644274C9.78462 -2.20109 10.6 5.09019 12.2308 8.64685C14.84 13.6262 22.0154 19.6133 25.2769 21.9845Z" fill="white"/>
<path d="M9.05871 10H7.42794L6.61256 14.4459L5.79718 18.8918C5.79718 22.4485 3.35102 22.4485 4.1664 24.2268C4.81871 25.6495 9.33051 28.9691 11.5049 30.451C15.5818 29.5619 15.5818 33.1186 17.2126 32.2294C18.8433 31.3402 24.551 28.6727 20.4741 25.116C17.2126 22.2706 11.5049 13.8531 9.05871 10Z" fill="#285430"/>
</svg>
