<svg width="420" height="350" viewBox="0 0 420 350" fill="none" xmlns="http://www.w3.org/2000/svg">
<path d="M147.643 332.507C149.704 330.378 154.117 330.834 157.354 331.252C156.747 330.207 161.724 329.119 186.487 333.134C187.903 332.089 191.95 330.248 196.805 331.252C224.809 321.968 247.294 297.468 263.857 290.867C243.507 297.074 224.874 314.518 210.158 321.842C194.377 314.941 164.638 288.717 147.643 289.219C173.135 296.12 198.019 323.724 206.516 324.352C202.146 327.363 197.817 328.116 196.198 328.116C191.343 327.614 187.701 329.161 186.487 329.998C162.695 325.983 156.343 327.07 156.14 328.116C153.227 327.112 149.262 328.952 147.643 329.998C105.886 306.409 106.776 294.656 112.441 291.729C117.903 289.219 125.187 282.527 128.828 280.435C145.17 284.334 157.354 282.945 164.637 281.258C184.194 276.727 182.443 250.105 178.597 222.717C177.99 259.732 177.99 255.968 122.759 281.063C100.909 296.12 108.799 288.591 115.476 282.945C85.8571 286.96 97.4699 282.945 106.979 280.435C73.5971 264.124 107.586 275.416 106.372 274.789C105.158 274.162 102.73 257.223 105.765 255.968C108.799 254.713 110.013 261.614 116.083 262.869C120.938 263.873 126.603 266.633 128.828 267.888C136.718 264.751 150.071 247.185 157.961 241.539C157.354 188.212 152.499 184.447 184.06 175.664C196.684 171.649 199.435 162.699 199.233 158.725C192.921 152.201 191.747 146.387 191.95 144.296C185.273 138.649 185.88 124.847 189.522 128.611C188.551 107.532 197.614 99.3338 202.268 97.8699C193.771 77.7941 225.938 77.7939 216.834 97.8699C229.458 103.391 230.996 121.083 230.187 129.239C235.528 124.722 230.187 144.297 227.152 144.296C227.152 148.311 221.892 155.589 219.262 158.725C219.262 169.265 230.996 174.41 236.863 175.664C269.031 186.957 261.14 190.094 261.14 241.539C265.996 244.048 283.597 267.261 291.487 267.888C294.886 264.375 301.198 264.124 304.233 262.242C311.516 259.105 312.123 254.504 313.337 255.968C316.979 260.36 313.742 274.162 312.123 275.417C338.343 266.383 323.048 274.999 312.123 280.436C334.944 285.957 316.372 284.409 304.233 282.945C318.314 296.496 304.031 286.919 295.129 280.436C294.643 278.93 271.458 269.352 259.927 264.751C238.684 256.792 241.112 234.01 240.505 223.972C229.337 298.755 264.175 282.945 290.88 280.436C294.522 280.436 298.77 287.964 307.875 291.729C317.1 306.785 283.799 325.188 265.996 332.508C276.192 331.504 272.268 335.017 269.031 336.899C275.343 337.903 271.661 339.827 269.031 340.664C273.886 342.671 269.84 344.01 267.21 344.428C271.094 345.933 266.401 347.146 263.568 347.565C266.967 348.067 264.984 348.61 263.568 348.819C251.429 352.333 231.401 347.146 222.903 344.428C234.071 342.42 242.932 338.572 245.967 336.898C227.516 343.925 154.927 352.583 156.747 347.564C156.14 347.564 152.499 346.936 151.892 346.309C151.406 345.807 152.499 344.427 153.106 343.8C151.69 343.8 148.857 343.549 148.857 342.545C148.857 341.541 150.071 340.872 150.678 340.663C149.869 340.454 148.25 339.784 148.25 338.781C148.25 337.938 148.935 336.828 150.015 336.791C148.588 336.265 146.112 334.09 147.643 332.507Z" fill="black"/>
<path d="M86.7919 272.28C89.2197 266.257 95.4913 264.752 98.3237 264.752C61.422 248.189 38.8439 226.064 32.1676 217.071C67.1272 172.904 125.231 158.098 149.913 156.216C91.4313 151.099 47.0071 169.09 0 217.071C38.237 257.223 69.7977 266.215 86.7919 272.28Z" fill="black" fill-opacity="0.2"/>
<path d="M333.208 271.865C330.78 265.843 324.509 264.337 321.676 264.337C358.578 247.774 381.156 225.649 387.832 216.657C352.873 172.49 294.769 157.684 270.087 155.802C328.569 150.684 372.993 168.676 420 216.657C381.763 256.809 350.202 265.801 333.208 271.865Z" fill="black" fill-opacity="0.2"/>
<path d="M84.3642 87.2049C81.9365 151.95 110.867 199.923 125.636 215.816C66.8845 165.627 58.266 92.8513 61.3007 62.7373C119.567 59.224 168.526 90.1326 185.723 106.026L183.902 111.672C137.775 85.5738 98.3238 84.4863 84.3642 87.2049Z" fill="black" fill-opacity="0.2"/>
<path d="M335.786 87.4923C337.831 152.251 308.618 200.041 293.756 215.841C352.802 166.023 361.85 93.3031 358.993 63.1705C300.749 59.29 251.608 89.8894 234.318 105.674L236.106 111.332C282.386 85.5245 321.842 84.6857 335.786 87.4923Z" fill="black" fill-opacity="0.2"/>
<path d="M210 34.5055C166.3 72.6497 152.543 130.703 151.127 154.961C142.387 80.1782 186.734 20.4942 210 0C266.324 53.7031 272.717 125.684 268.873 154.961C262.075 85.6991 226.792 45.7982 210 34.5055Z" fill="black" fill-opacity="0.2"/>
</svg>
