<svg width="341" height="288" viewBox="0 0 341 288" fill="none" xmlns="http://www.w3.org/2000/svg">
<g filter="url(#filter0_d_647_822)">
<path d="M4 138.88C54.6068 125.283 80.5307 131.03 125.243 149.607C149.19 168.939 162.483 185.056 168.044 198.093C179.313 182.331 198.076 164.821 215.757 150.736C253.535 128.854 280.629 127.247 337 138.88C324.576 185.649 309.869 204.176 273.305 226.951C202.209 244.366 170.138 242.508 160.749 231.234C140.767 245.597 96.4691 243.578 66.5772 226.951C31.1804 204.89 18.0816 184.93 4 138.88Z" fill="black" fill-opacity="0.2"/>
<path d="M279.451 52.5034C300.012 164.511 239.596 216.6 206.817 228.644C135.747 243.548 163.423 133.799 181.675 116.298C199.107 81.5215 254.309 59.0899 279.451 52.5034Z" fill="black" fill-opacity="0.2"/>
<path d="M61.5487 52.5034C43.1106 182.351 113.51 211.708 133.065 228.644C171.431 236.736 230.395 225.709 159.325 116.863C134.295 77.118 83.3389 57.0198 61.5487 52.5034Z" fill="black" fill-opacity="0.2"/>
<path d="M169.941 0C228.021 73.2959 240.442 116.381 195.643 199.852L145.357 200.981C105.643 125.417 110.991 81.483 169.941 0Z" fill="black" fill-opacity="0.2"/>
<path d="M281.611 262.144C274.917 285.179 204.632 281.34 170.605 275.694C138.065 280.964 70.3087 285.631 59.5986 262.144C56.2517 243.559 81.9113 238.949 84.1426 236.737C85.9276 234.968 118.356 229.225 134.346 226.574C141.97 215.659 154.093 187.73 141.598 163.339C134.346 173.455 141.71 193.367 81.9113 236.69C77.6347 239.701 64.0611 246.288 50.1156 241.818C49.6902 241.682 54.2063 240.877 56.2517 240.689C51.7891 237.979 49.5578 233.914 49 232.22C49.8925 232.22 53.8344 235.608 55.6938 237.302C50.785 231.881 51.0453 229.021 51.7891 228.268C53.5741 230.978 56.6235 233.914 57.9251 235.043C54.5782 230.526 55.6938 226.574 55.6938 226.01C55.6938 225.558 56.8095 226.198 57.3673 226.574C57.3673 233.349 62.2017 233.538 64.6189 232.785C68.189 231.881 61.6439 228.644 57.9251 227.139C57.3673 226.01 56.5864 224.09 57.9251 225.445C59.2639 226.8 71.3128 226.574 79.1223 225.445C81.9113 222.575 102.551 192.087 110.918 188.182C117.166 179.148 125.421 149.789 128.768 136.239C130.999 128.109 143.086 123.818 148.85 122.688C157.775 120.882 160.75 112.526 161.122 108.574C154.874 104.057 150.337 95.0232 148.85 91.071C141.71 82.9408 143.643 77.8971 145.503 76.3915C142.379 56.5177 154.614 47.4089 161.122 45.3387C162.014 35.4018 167.444 33.6703 170.047 34.0467C178.972 34.0467 180.273 42.1393 180.088 45.3387C195.706 51.2105 197.008 68.8635 195.706 76.9561C201.062 79.6662 195.335 87.4952 191.802 91.071C189.124 101.911 182.877 107.256 180.088 108.574C180.98 116.252 186.781 120.43 189.57 121.559C205.636 125.624 211.511 133.039 212.441 136.239C217.35 161.081 225.271 180.465 229.733 188.182C245.352 200.038 261.529 224.316 261.529 225.445C261.529 226.574 282.726 226.01 283.284 225.445C283.73 224.993 283.47 226.386 283.284 227.139C277.483 228.946 276.032 231.279 276.032 232.22C284.4 235.043 284.4 226.574 283.842 226.574C283.396 226.574 284.028 226.198 284.4 226.01C287.97 226.913 285.515 232.032 283.842 234.479C287.858 229.962 289.606 228.833 289.978 228.833C289.978 231.436 287.96 234.219 286.418 235.855C289.073 233.354 290.981 232.39 291.651 232.22C293.436 234.479 287.933 238.807 284.958 240.689C287.189 241.63 289.234 242.179 289.978 242.336C282.838 245.498 268.037 239.513 261.529 236.126C236.093 227.092 202.958 187.006 200.169 163.339C188.455 198.298 200.541 220.74 207.979 227.703C221.989 228.668 244.414 230.967 260.414 236.737C275.629 242.224 284.958 250.626 281.611 262.144Z" fill="#1E1E1E"/>
</g>
<defs>
<filter id="filter0_d_647_822" x="0" y="0" width="341" height="288" filterUnits="userSpaceOnUse" color-interpolation-filters="sRGB">
<feFlood flood-opacity="0" result="BackgroundImageFix"/>
<feColorMatrix in="SourceAlpha" type="matrix" values="0 0 0 0 0 0 0 0 0 0 0 0 0 0 0 0 0 0 127 0" result="hardAlpha"/>
<feOffset dy="4"/>
<feGaussianBlur stdDeviation="2"/>
<feComposite in2="hardAlpha" operator="out"/>
<feColorMatrix type="matrix" values="0 0 0 0 0 0 0 0 0 0 0 0 0 0 0 0 0 0 0.25 0"/>
<feBlend mode="normal" in2="BackgroundImageFix" result="effect1_dropShadow_647_822"/>
<feBlend mode="normal" in="SourceGraphic" in2="effect1_dropShadow_647_822" result="shape"/>
</filter>
</defs>
</svg>
